<?xml version="1.0" encoding="UTF-8" standalone="no"?>
<svg
   xmlns:dc="http://purl.org/dc/elements/1.1/"
   xmlns:cc="http://creativecommons.org/ns#"
   xmlns:rdf="http://www.w3.org/1999/02/22-rdf-syntax-ns#"
   xmlns:svg="http://www.w3.org/2000/svg"
   xmlns="http://www.w3.org/2000/svg"
   xml:space="preserve"
   enable-background="new 0 0 156 212"
   viewBox="0 0 156 212"
   y="0px"
   x="0px"
   id="filecss"
   version="1.1"><metadata
     id="metadata15"><rdf:RDF><cc:Work
         rdf:about=""><dc:format>image/svg+xml</dc:format><dc:type
           rdf:resource="http://purl.org/dc/dcmitype/StillImage" /><dc:title></dc:title></cc:Work></rdf:RDF></metadata><defs
     id="defs13" /><g
     id="g8"><path
       id="path2"
       d="M154.826,40.2969L115.6504,1.168c-0.75-0.7459-1.7656-1.168-2.826-1.168H4C1.7912,0,0,1.7893,0,4v204   c0,2.2109,1.7912,4,4,4h148c2.2088,0,4-1.7891,4-4V43.1289C156,42.0665,155.578,41.0509,154.826,40.2969z M142.3436,40H116V13.6565   L142.3436,40z M8,204V8h100v36c0,2.2109,1.7912,4,4,4h36v156H8z" /></g></svg>